# xmcd
#
# Track frame offsets:
#	150
#	16584
#	38087
#	54173
#	72237
#	88867
#	104216
#	118413
#	136209
#	150911
#
# Disc length: 2289 seconds
#
# Revision: 0
# Processed by: cddbd v1.4PL0 Copyright (c) Steve Scherf et al.
# Submitted via: EasyCDDAExtractor 4.6.9.1
#
DISCID=7d08ef0a
DTITLE=Emmylou Harris - Luxury Liner
DYEAR=1977
DGENRE=Country
TTITLE0=Luxury Liner
TTITLE1=Pancho and Lefty
TTITLE2=Making Believe
TTITLE3=You're Supposed To Be Feeling Good
TTITLE4=I'll Be Your San Antonio Rose
TTITLE5=(You Never Can Tell) C'est La Vie
TTITLE6=When I Stop Dreaming
TTITLE7=Hello Stranger
TTITLE8=She
TTITLE9=Tulsa Queen
EXTD=
EXTT0=
EXTT1=
EXTT2=
EXTT3=
EXTT4=
EXTT5=
EXTT6=
EXTT7=
EXTT8=
EXTT9=
PLAYORDER=
